<mxfile host="app.diagrams.net" modified="2021-01-16T06:36:20.199Z" agent="5.0 (Macintosh; Intel Mac OS X 11_1_0) AppleWebKit/537.36 (KHTML, like Gecko) Chrome/87.0.4280.141 Safari/537.36" etag="ItpABfC-CEwtFo_Fn_X1" version="14.2.3" type="github">
  <diagram id="R5LdqlkoAHs6YHooq09k" name="Page-1">
    <mxGraphModel dx="1186" dy="677" grid="1" gridSize="10" guides="1" tooltips="1" connect="1" arrows="1" fold="1" page="1" pageScale="1" pageWidth="827" pageHeight="1169" math="0" shadow="0">
      <root>
        <mxCell id="0" />
        <mxCell id="1" parent="0" />
        <mxCell id="z8GekvT46LI3ZViSAVP9-2" style="edgeStyle=orthogonalEdgeStyle;rounded=0;orthogonalLoop=1;jettySize=auto;html=1;" edge="1" parent="1" source="z8GekvT46LI3ZViSAVP9-1">
          <mxGeometry relative="1" as="geometry">
            <mxPoint x="370" y="280" as="targetPoint" />
          </mxGeometry>
        </mxCell>
        <mxCell id="z8GekvT46LI3ZViSAVP9-1" value="" style="whiteSpace=wrap;html=1;aspect=fixed;" vertex="1" parent="1">
          <mxGeometry x="210" y="240" width="80" height="80" as="geometry" />
        </mxCell>
        <mxCell id="z8GekvT46LI3ZViSAVP9-3" value="Text" style="text;html=1;strokeColor=none;fillColor=none;align=center;verticalAlign=middle;whiteSpace=wrap;rounded=0;" vertex="1" parent="1">
          <mxGeometry x="150" y="110" width="40" height="20" as="geometry" />
        </mxCell>
        <mxCell id="z8GekvT46LI3ZViSAVP9-4" value="" style="ellipse;whiteSpace=wrap;html=1;" vertex="1" parent="1">
          <mxGeometry x="90" y="200" width="120" height="80" as="geometry" />
        </mxCell>
      </root>
    </mxGraphModel>
  </diagram>
</mxfile>
